# xmcd CD database file generated by Grip 3.2.0
# 
# Track frame offsets:
#       150
#       7944
#       34311
#       48362
#       60364
#       78814
#       87519
#       100859
#       113667
#       135976
#       164501
#       177472
#       184625
#       195539
# 
# Disc length: 2767 seconds
# 
# Revision: 6
# Processed by: cddbd v1.5.1PL0 Copyright (c) Steve Scherf et al.
# Submitted via: Grip 3.2.0
# 
DISCID=a70acd0e
DTITLE=Paul Ruskay - Homeworld Music
DYEAR=1900
DGENRE=Soundtrack
TTITLE0=Data Track
TTITLE1=Adagio for Strings (by Dei, Angus)
TTITLE2=Mission 1 - Kharak System
TTITLE3=Mission 2 - Great Wastelands
TTITLE4=Turanic Raiders Battle Music
TTITLE5=Mission 5 - Garden View
TTITLE6=Imperial Battle Music
TTITLE7=Mission 6 - Diamond Shoals
TTITLE8=Mission 7 - Garden of Kadesh
TTITLE9=Swarmer Battle Music
TTITLE10=Mission 9 - Whispering Ocean
TTITLE11=Mission 10 - Super Nova Station
TTITLE12=Mission 13 - Ship Graveyard
TTITLE13=Mission 14 - Bridge of Sighs
EXTD=Track 1 written by Angus Dei and performed by Quire of Voyces
EXTT0=
EXTT1=
EXTT2=
EXTT3=
EXTT4=
EXTT5=
EXTT6=
EXTT7=
EXTT8=
EXTT9=
EXTT10=
EXTT11=
EXTT12=
EXTT13=
PLAYORDER=
